{
  "accessors": [
    {
      "bufferView": 2,
      "componentType": 5126,
      "count": 6723,
      "max": [
        8.1401863098144531,
        10.297038078308105,
        7.5158190727233887
      ],
      "min": [
        -9.1482467651367188,
        -10.255600929260254,
        -6.4223108291625977
      ],
      "type": "VEC3"
    },
    {
      "bufferView": 2,
      "byteOffset": 80676,
      "componentType": 5126,
      "count": 6723,
      "max": [
        0.99978744983673096,
        0.99957013130187988,
        1
      ],
      "min": [
        -0.99998527765274048,
        -0.99999320507049561,
        -1
      ],
      "type": "VEC3"
    },
    {
      "bufferView": 3,
      "componentType": 5126,
      "count": 6723,
      "max": [
        0.99999040365219116,
        0.98454070091247559,
        0.86624133586883545,
        1
      ],
      "min": [
        -0.99585926532745361,
        -0.98924493789672852,
        -0.99973994493484497,
        -1
      ],
      "type": "VEC4"
    },
    {
      "bufferView": 3,
      "byteOffset": 107568,
      "componentType": 5126,
      "count": 6723,
      "max": [
        0,
        0,
        0,
        0
      ],
      "min": [
        0,
        0,
        0,
        0
      ],
      "type": "VEC4"
    },
    {
      "bufferView": 1,
      "componentType": 5126,
      "count": 6723,
      "max": [
        0.99786925315856934,
        0.99772149324417114
      ],
      "min": [
        0.0020332843996584415,
        0.0021684677340090275
      ],
      "type": "VEC2"
    },
    {
      "bufferView": 0,
      "componentType": 5125,
      "count": 38343,
      "max": [
        6722
      ],
      "min": [
        0
      ],
      "type": "SCALAR"
    }
  ],
  "asset": {
    "extras": {
      "author": "3dhdscan (https://sketchfab.com/3dhdscan)",
      "license": "CC-BY-4.0 (http://creativecommons.org/licenses/by/4.0/)",
      "source": "https://sketchfab.com/models/ed49866dbdfd4b52aad3edaabc63c70f",
      "title": "Big border stone 03"
    },
    "generator": "Sketchfab-3.23.2",
    "version": "2.0"
  },
  "bufferViews": [
    {
      "buffer": 0,
      "byteLength": 153372,
      "byteOffset": 0,
      "name": "floatBufferViews",
      "target": 34963
    },
    {
      "buffer": 0,
      "byteLength": 53784,
      "byteOffset": 153372,
      "byteStride": 8,
      "name": "floatBufferViews",
      "target": 34962
    },
    {
      "buffer": 0,
      "byteLength": 161352,
      "byteOffset": 207156,
      "byteStride": 12,
      "name": "floatBufferViews",
      "target": 34962
    },
    {
      "buffer": 0,
      "byteLength": 215136,
      "byteOffset": 368508,
      "byteStride": 16,
      "name": "floatBufferViews",
      "target": 34962
    }
  ],
  "buffers": [
    {
      "byteLength": 583644,
      "uri": "scene.bin"
    }
  ],
  "extensionsRequired": [
    "KHR_materials_pbrSpecularGlossiness"
  ],
  "extensionsUsed": [
    "KHR_materials_pbrSpecularGlossiness"
  ],
  "images": [
    {
      "uri": "textures/kmd_c_diffuse.png"
    },
    {
      "uri": "textures/kmd_c_occlusion.png"
    },
    {
      "uri": "textures/kmd_c_normal.jpeg"
    },
    {
      "uri": "textures/kmd_c_specularGlossiness.jpeg"
    }
  ],
  "materials": [
    {
      "alphaMode": "BLEND",
      "doubleSided": false,
      "extensions": {
        "KHR_materials_pbrSpecularGlossiness": {
          "diffuseFactor": [
            1,
            1,
            1,
            1
          ],
          "diffuseTexture": {
            "index": 0,
            "texCoord": 0
          },
          "glossinessFactor": 0.056592987800000001,
          "specularFactor": [
            0.61147103660000002,
            0.61147103660000002,
            0.61147103660000002
          ],
          "specularGlossinessTexture": {
            "index": 3,
            "texCoord": 0
          }
        }
      },
      "name": "kmd_c",
      "normalTexture": {
        "index": 2,
        "scale": 1,
        "texCoord": 0
      },
      "occlusionTexture": {
        "index": 1,
        "strength": 1,
        "texCoord": 0
      }
    }
  ],
  "meshes": [
    {
      "name": "kmd_c_kmd_c_0",
      "primitives": [
        {
          "attributes": {
            "COLOR_0": 3,
            "NORMAL": 1,
            "POSITION": 0,
            "TANGENT": 2,
            "TEXCOORD_0": 4
          },
          "indices": 5,
          "material": 0,
          "mode": 4
        }
      ]
    }
  ],
  "nodes": [
    {
      "children": [
        1
      ],
      "name": "RootNode (gltf orientation matrix)",
      "rotation": [
        -0.70710678118654746,
        -0,
        -0,
        0.70710678118654757
      ]
    },
    {
      "children": [
        2
      ],
      "name": "RootNode (model correction matrix)"
    },
    {
      "children": [
        3
      ],
      "matrix": [
        1,
        0,
        0,
        0,
        0,
        0,
        1,
        0,
        0,
        -1,
        0,
        0,
        0,
        0,
        0,
        1
      ],
      "name": "kmd_c.FBX"
    },
    {
      "children": [
        4
      ],
      "name": "RootNode"
    },
    {
      "children": [
        5
      ],
      "matrix": [
        0.0099999997764825821,
        0,
        0,
        0,
        0,
        2.2204459996194763e-18,
        -0.0099999997764825821,
        0,
        0,
        0.0099999997764825821,
        2.2204459996194763e-18,
        0,
        0.0012049961369484663,
        0.064223095774650574,
        -0.026691898703575134,
        1
      ],
      "name": "kmd_c"
    },
    {
      "mesh": 0,
      "name": "kmd_c_kmd_c_0"
    }
  ],
  "samplers": [
    {
      "magFilter": 9729,
      "minFilter": 9987,
      "wrapS": 10497,
      "wrapT": 10497
    }
  ],
  "scene": 0,
  "scenes": [
    {
      "name": "OSG_Scene",
      "nodes": [
        0
      ]
    }
  ],
  "textures": [
    {
      "sampler": 0,
      "source": 0
    },
    {
      "sampler": 0,
      "source": 1
    },
    {
      "sampler": 0,
      "source": 2
    },
    {
      "sampler": 0,
      "source": 3
    }
  ]
}

