{
  "accessors": [
    {
      "bufferView": 2,
      "componentType": 5126,
      "count": 15474,
      "max": [
        8.6463851928710938,
        11.681714057922363,
        13.510600090026855
      ],
      "min": [
        -8.6463851928710938,
        -11.681714057922363,
        -13.510600090026855
      ],
      "type": "VEC3"
    },
    {
      "bufferView": 2,
      "byteOffset": 185688,
      "componentType": 5126,
      "count": 15474,
      "max": [
        0.9999922513961792,
        0.99987518787384033,
        0.99991464614868164
      ],
      "min": [
        -0.99995672702789307,
        -0.99990421533584595,
        -0.9999997615814209
      ],
      "type": "VEC3"
    },
    {
      "bufferView": 3,
      "componentType": 5126,
      "count": 15474,
      "max": [
        0.99963557720184326,
        0.99996989965438843,
        0.98946887254714966,
        1
      ],
      "min": [
        -0.99900585412979126,
        -0.99993669986724854,
        -0.9999966025352478,
        1
      ],
      "type": "VEC4"
    },
    {
      "bufferView": 1,
      "componentType": 5126,
      "count": 15474,
      "max": [
        0.99799990653991699,
        0.99516028165817261
      ],
      "min": [
        0.0020000000949949026,
        0.0020000000949949026
      ],
      "type": "VEC2"
    },
    {
      "bufferView": 0,
      "componentType": 5125,
      "count": 90000,
      "max": [
        15473
      ],
      "min": [
        0
      ],
      "type": "SCALAR"
    }
  ],
  "asset": {
    "extras": {
      "author": "3dhdscan (https://sketchfab.com/3dhdscan)",
      "license": "CC-BY-4.0 (http://creativecommons.org/licenses/by/4.0/)",
      "source": "https://sketchfab.com/models/738c91671bf2440e9b4e15477874cbc1",
      "title": "Stone black 1"
    },
    "generator": "Sketchfab-3.19.4",
    "version": "2.0"
  },
  "bufferViews": [
    {
      "buffer": 0,
      "byteLength": 360000,
      "byteOffset": 0,
      "name": "floatBufferViews",
      "target": 34963
    },
    {
      "buffer": 0,
      "byteLength": 123792,
      "byteOffset": 360000,
      "byteStride": 8,
      "name": "floatBufferViews",
      "target": 34962
    },
    {
      "buffer": 0,
      "byteLength": 371376,
      "byteOffset": 483792,
      "byteStride": 12,
      "name": "floatBufferViews",
      "target": 34962
    },
    {
      "buffer": 0,
      "byteLength": 247584,
      "byteOffset": 855168,
      "byteStride": 16,
      "name": "floatBufferViews",
      "target": 34962
    }
  ],
  "buffers": [
    {
      "byteLength": 1102752,
      "uri": "scene.bin"
    }
  ],
  "images": [
    {
      "uri": "textures/sutr15_baseColor.jpeg"
    },
    {
      "uri": "textures/sutr15_normal.jpeg"
    },
    {
      "uri": "textures/sutr15_metallicRoughness.png"
    }
  ],
  "materials": [
    {
      "doubleSided": true,
      "name": "sutr15",
      "normalTexture": {
        "index": 1,
        "scale": 1,
        "texCoord": 0
      },
      "occlusionTexture": {
        "index": 2,
        "strength": 1,
        "texCoord": 0
      },
      "pbrMetallicRoughness": {
        "baseColorFactor": [
          1,
          1,
          1,
          1
        ],
        "baseColorTexture": {
          "index": 0,
          "texCoord": 0
        },
        "metallicFactor": 0,
        "roughnessFactor": 0.68730945119999998
      }
    }
  ],
  "meshes": [
    {
      "name": "sutr15_sutr15_0",
      "primitives": [
        {
          "attributes": {
            "NORMAL": 1,
            "POSITION": 0,
            "TANGENT": 2,
            "TEXCOORD_0": 3
          },
          "indices": 4,
          "material": 0,
          "mode": 4
        }
      ]
    }
  ],
  "nodes": [
    {
      "children": [
        1
      ],
      "name": "RootNode (gltf orientation matrix)",
      "rotation": [
        -0.70710678118654746,
        -0,
        -0,
        0.70710678118654757
      ]
    },
    {
      "children": [
        2
      ],
      "matrix": [
        0,
        -0.79781699180603027,
        0.60289973020553589,
        0,
        1,
        0,
        0,
        0,
        0,
        0.60289973020553589,
        0.79781699180603027,
        0,
        -12.658843994140625,
        10.45757007598877,
        0.73819947242736816,
        1
      ],
      "name": "RootNode (model correction matrix)"
    },
    {
      "children": [
        3
      ],
      "matrix": [
        1,
        0,
        0,
        0,
        0,
        -1,
        0,
        0,
        0,
        0,
        -1,
        0,
        0,
        0,
        0,
        1
      ],
      "name": "sutr15.FBX"
    },
    {
      "children": [
        4
      ],
      "name": "RootNode"
    },
    {
      "children": [
        5
      ],
      "matrix": [
        1,
        0,
        0,
        0,
        0,
        1,
        0,
        0,
        0,
        0,
        1,
        0,
        -1.0684638023376465,
        -11.590367317199707,
        -0.46506023406982422,
        1
      ],
      "name": "sutr15"
    },
    {
      "mesh": 0,
      "name": "sutr15_sutr15_0"
    }
  ],
  "samplers": [
    {
      "magFilter": 9729,
      "minFilter": 9987,
      "wrapS": 10497,
      "wrapT": 10497
    }
  ],
  "scene": 0,
  "scenes": [
    {
      "name": "OSG_Scene",
      "nodes": [
        0
      ]
    }
  ],
  "textures": [
    {
      "sampler": 0,
      "source": 0
    },
    {
      "sampler": 0,
      "source": 1
    },
    {
      "sampler": 0,
      "source": 2
    }
  ]
}

