{
  "accessors": [
    {
      "bufferView": 2,
      "componentType": 5126,
      "count": 57955,
      "max": [
        1.2851999998092651,
        1.6635600328445435,
        1.8539600372314453
      ],
      "min": [
        -2.0433099269866943,
        -1.3768199682235718,
        -0.39336401224136353
      ],
      "type": "VEC3"
    },
    {
      "bufferView": 2,
      "byteOffset": 695460,
      "componentType": 5126,
      "count": 57955,
      "max": [
        0.99976295232772827,
        0.99954825639724731,
        0.99982386827468872
      ],
      "min": [
        -0.99993729591369629,
        -0.99983865022659302,
        -0.88876402378082275
      ],
      "type": "VEC3"
    },
    {
      "bufferView": 3,
      "componentType": 5126,
      "count": 57955,
      "max": [
        0.9998621940612793,
        0.99989485740661621,
        0.99968892335891724,
        1
      ],
      "min": [
        -0.9985843300819397,
        -0.99982267618179321,
        -0.99999773502349854,
        -1
      ],
      "type": "VEC4"
    },
    {
      "bufferView": 1,
      "componentType": 5126,
      "count": 57955,
      "max": [
        1,
        1
      ],
      "min": [
        0,
        0
      ],
      "type": "VEC2"
    },
    {
      "bufferView": 0,
      "componentType": 5125,
      "count": 303192,
      "max": [
        57954
      ],
      "min": [
        0
      ],
      "type": "SCALAR"
    }
  ],
  "asset": {
    "extras": {
      "author": "mesropash97 (https://sketchfab.com/mesropash97)",
      "license": "CC-BY-4.0 (http://creativecommons.org/licenses/by/4.0/)",
      "source": "https://sketchfab.com/models/2312aa27f10748b699c97ce7e838df19",
      "title": "Stone"
    },
    "generator": "Sketchfab-4.12.0",
    "version": "2.0"
  },
  "bufferViews": [
    {
      "buffer": 0,
      "byteLength": 1212768,
      "byteOffset": 0,
      "name": "floatBufferViews",
      "target": 34963
    },
    {
      "buffer": 0,
      "byteLength": 463640,
      "byteOffset": 1212768,
      "byteStride": 8,
      "name": "floatBufferViews",
      "target": 34962
    },
    {
      "buffer": 0,
      "byteLength": 1390920,
      "byteOffset": 1676408,
      "byteStride": 12,
      "name": "floatBufferViews",
      "target": 34962
    },
    {
      "buffer": 0,
      "byteLength": 927280,
      "byteOffset": 3067328,
      "byteStride": 16,
      "name": "floatBufferViews",
      "target": 34962
    }
  ],
  "buffers": [
    {
      "byteLength": 3994608,
      "uri": "scene.bin"
    }
  ],
  "images": [
    {
      "uri": "textures/a_low_poly_baseColor.png"
    },
    {
      "uri": "textures/a_low_poly_normal.png"
    }
  ],
  "materials": [
    {
      "doubleSided": true,
      "name": "a_low_poly",
      "normalTexture": {
        "index": 1,
        "scale": 1,
        "texCoord": 0
      },
      "pbrMetallicRoughness": {
        "baseColorFactor": [
          1,
          1,
          1,
          1
        ],
        "baseColorTexture": {
          "index": 0,
          "texCoord": 0
        },
        "metallicFactor": 0,
        "roughnessFactor": 0.59999999999999998
      }
    }
  ],
  "meshes": [
    {
      "primitives": [
        {
          "attributes": {
            "NORMAL": 1,
            "POSITION": 0,
            "TANGENT": 2,
            "TEXCOORD_0": 3
          },
          "indices": 4,
          "material": 0,
          "mode": 4
        }
      ]
    }
  ],
  "nodes": [
    {
      "children": [
        1
      ],
      "name": "RootNode (gltf orientation matrix)",
      "rotation": [
        -0.70710678118654746,
        -0,
        -0,
        0.70710678118654757
      ]
    },
    {
      "children": [
        2
      ],
      "name": "RootNode (model correction matrix)"
    },
    {
      "children": [
        3
      ],
      "name": "final stone.obj.cleaner.materialmerger.gles"
    },
    {
      "mesh": 0,
      "name": ""
    }
  ],
  "samplers": [
    {
      "magFilter": 9729,
      "minFilter": 9987,
      "wrapS": 10497,
      "wrapT": 10497
    }
  ],
  "scene": 0,
  "scenes": [
    {
      "name": "OSG_Scene",
      "nodes": [
        0
      ]
    }
  ],
  "textures": [
    {
      "sampler": 0,
      "source": 0
    },
    {
      "sampler": 0,
      "source": 1
    }
  ]
}

